<mxfile host="app.diagrams.net" agent="Mozilla/5.0 (X11; Linux x86_64) AppleWebKit/537.36 (KHTML, like Gecko) Chrome/131.0.0.0 Safari/537.36" version="26.0.2">
  <diagram name="Page-1" id="CWjfH2-TphjITWqSUzd5">
    <mxGraphModel dx="3407" dy="1144" grid="1" gridSize="10" guides="1" tooltips="1" connect="1" arrows="1" fold="1" page="1" pageScale="1" pageWidth="827" pageHeight="1169" math="0" shadow="0">
      <root>
        <mxCell id="0" />
        <mxCell id="1" parent="0" />
        <mxCell id="ws8rJvI975nbO94ChAaM-1" value="" style="edgeStyle=orthogonalEdgeStyle;rounded=0;orthogonalLoop=1;jettySize=auto;html=1;" edge="1" parent="1" source="tWN-eLVCdU0-iKNi5xqO-1" target="tWN-eLVCdU0-iKNi5xqO-2">
          <mxGeometry relative="1" as="geometry" />
        </mxCell>
        <mxCell id="tWN-eLVCdU0-iKNi5xqO-1" value="Start" style="ellipse;whiteSpace=wrap;html=1;" parent="1" vertex="1">
          <mxGeometry x="330" y="140" width="120" height="80" as="geometry" />
        </mxCell>
        <mxCell id="ws8rJvI975nbO94ChAaM-3" style="edgeStyle=orthogonalEdgeStyle;rounded=0;orthogonalLoop=1;jettySize=auto;html=1;entryX=0.5;entryY=0;entryDx=0;entryDy=0;" edge="1" parent="1" source="tWN-eLVCdU0-iKNi5xqO-2" target="tWN-eLVCdU0-iKNi5xqO-14">
          <mxGeometry relative="1" as="geometry" />
        </mxCell>
        <mxCell id="tWN-eLVCdU0-iKNi5xqO-2" value="Get user choice" style="shape=parallelogram;perimeter=parallelogramPerimeter;whiteSpace=wrap;html=1;fixedSize=1;" parent="1" vertex="1">
          <mxGeometry x="330" y="300" width="120" height="60" as="geometry" />
        </mxCell>
        <mxCell id="ws8rJvI975nbO94ChAaM-62" value="" style="edgeStyle=orthogonalEdgeStyle;rounded=0;orthogonalLoop=1;jettySize=auto;html=1;" edge="1" parent="1" source="tWN-eLVCdU0-iKNi5xqO-5" target="tWN-eLVCdU0-iKNi5xqO-41">
          <mxGeometry relative="1" as="geometry" />
        </mxCell>
        <mxCell id="ws8rJvI975nbO94ChAaM-64" style="edgeStyle=orthogonalEdgeStyle;rounded=0;orthogonalLoop=1;jettySize=auto;html=1;exitX=1;exitY=0.5;exitDx=0;exitDy=0;entryX=0.5;entryY=0;entryDx=0;entryDy=0;" edge="1" parent="1" source="tWN-eLVCdU0-iKNi5xqO-5" target="tWN-eLVCdU0-iKNi5xqO-12">
          <mxGeometry relative="1" as="geometry" />
        </mxCell>
        <mxCell id="tWN-eLVCdU0-iKNi5xqO-5" value="if choice is check baalance" style="rhombus;whiteSpace=wrap;html=1;" parent="1" vertex="1">
          <mxGeometry x="640" y="440" width="130" height="100" as="geometry" />
        </mxCell>
        <mxCell id="ws8rJvI975nbO94ChAaM-4" value="" style="edgeStyle=orthogonalEdgeStyle;rounded=0;orthogonalLoop=1;jettySize=auto;html=1;" edge="1" parent="1" source="tWN-eLVCdU0-iKNi5xqO-9" target="tWN-eLVCdU0-iKNi5xqO-23">
          <mxGeometry relative="1" as="geometry" />
        </mxCell>
        <mxCell id="ws8rJvI975nbO94ChAaM-6" style="edgeStyle=orthogonalEdgeStyle;rounded=0;orthogonalLoop=1;jettySize=auto;html=1;entryX=0.5;entryY=0;entryDx=0;entryDy=0;" edge="1" parent="1" source="tWN-eLVCdU0-iKNi5xqO-9" target="tWN-eLVCdU0-iKNi5xqO-13">
          <mxGeometry relative="1" as="geometry" />
        </mxCell>
        <mxCell id="tWN-eLVCdU0-iKNi5xqO-9" value="if choice is search user" style="rhombus;whiteSpace=wrap;html=1;" parent="1" vertex="1">
          <mxGeometry x="-300" y="440" width="130" height="100" as="geometry" />
        </mxCell>
        <mxCell id="ws8rJvI975nbO94ChAaM-43" style="edgeStyle=orthogonalEdgeStyle;rounded=0;orthogonalLoop=1;jettySize=auto;html=1;exitX=0.5;exitY=1;exitDx=0;exitDy=0;entryX=0.5;entryY=0;entryDx=0;entryDy=0;" edge="1" parent="1" source="tWN-eLVCdU0-iKNi5xqO-10" target="tWN-eLVCdU0-iKNi5xqO-33">
          <mxGeometry relative="1" as="geometry" />
        </mxCell>
        <mxCell id="ws8rJvI975nbO94ChAaM-44" style="edgeStyle=orthogonalEdgeStyle;rounded=0;orthogonalLoop=1;jettySize=auto;html=1;exitX=1;exitY=0.5;exitDx=0;exitDy=0;entryX=0.5;entryY=0;entryDx=0;entryDy=0;" edge="1" parent="1" source="tWN-eLVCdU0-iKNi5xqO-10" target="tWN-eLVCdU0-iKNi5xqO-5">
          <mxGeometry relative="1" as="geometry" />
        </mxCell>
        <mxCell id="tWN-eLVCdU0-iKNi5xqO-10" value="if choice is withdraw" style="rhombus;whiteSpace=wrap;html=1;" parent="1" vertex="1">
          <mxGeometry x="325" y="440" width="130" height="100" as="geometry" />
        </mxCell>
        <mxCell id="ws8rJvI975nbO94ChAaM-86" value="" style="edgeStyle=orthogonalEdgeStyle;rounded=0;orthogonalLoop=1;jettySize=auto;html=1;" edge="1" parent="1" source="tWN-eLVCdU0-iKNi5xqO-11" target="ws8rJvI975nbO94ChAaM-85">
          <mxGeometry relative="1" as="geometry" />
        </mxCell>
        <mxCell id="ws8rJvI975nbO94ChAaM-90" style="edgeStyle=orthogonalEdgeStyle;rounded=0;orthogonalLoop=1;jettySize=auto;html=1;exitX=1;exitY=0.5;exitDx=0;exitDy=0;entryX=0;entryY=0.5;entryDx=0;entryDy=0;" edge="1" parent="1" source="tWN-eLVCdU0-iKNi5xqO-11" target="ws8rJvI975nbO94ChAaM-88">
          <mxGeometry relative="1" as="geometry" />
        </mxCell>
        <mxCell id="tWN-eLVCdU0-iKNi5xqO-11" value="if choice is exit" style="rhombus;whiteSpace=wrap;html=1;" parent="1" vertex="1">
          <mxGeometry x="1280" y="440" width="130" height="100" as="geometry" />
        </mxCell>
        <mxCell id="ws8rJvI975nbO94ChAaM-73" style="edgeStyle=orthogonalEdgeStyle;rounded=0;orthogonalLoop=1;jettySize=auto;html=1;exitX=0.5;exitY=1;exitDx=0;exitDy=0;entryX=0.5;entryY=0;entryDx=0;entryDy=0;" edge="1" parent="1" source="tWN-eLVCdU0-iKNi5xqO-12" target="tWN-eLVCdU0-iKNi5xqO-46">
          <mxGeometry relative="1" as="geometry" />
        </mxCell>
        <mxCell id="ws8rJvI975nbO94ChAaM-74" style="edgeStyle=orthogonalEdgeStyle;rounded=0;orthogonalLoop=1;jettySize=auto;html=1;exitX=1;exitY=0.5;exitDx=0;exitDy=0;entryX=0.5;entryY=0;entryDx=0;entryDy=0;" edge="1" parent="1" source="tWN-eLVCdU0-iKNi5xqO-12" target="tWN-eLVCdU0-iKNi5xqO-11">
          <mxGeometry relative="1" as="geometry" />
        </mxCell>
        <mxCell id="tWN-eLVCdU0-iKNi5xqO-12" value="if choice is deposit" style="rhombus;whiteSpace=wrap;html=1;" parent="1" vertex="1">
          <mxGeometry x="960" y="440" width="130" height="100" as="geometry" />
        </mxCell>
        <mxCell id="ws8rJvI975nbO94ChAaM-30" style="edgeStyle=orthogonalEdgeStyle;rounded=0;orthogonalLoop=1;jettySize=auto;html=1;exitX=0.5;exitY=1;exitDx=0;exitDy=0;entryX=0.5;entryY=0;entryDx=0;entryDy=0;" edge="1" parent="1" source="tWN-eLVCdU0-iKNi5xqO-13" target="tWN-eLVCdU0-iKNi5xqO-28">
          <mxGeometry relative="1" as="geometry" />
        </mxCell>
        <mxCell id="ws8rJvI975nbO94ChAaM-31" style="edgeStyle=orthogonalEdgeStyle;rounded=0;orthogonalLoop=1;jettySize=auto;html=1;exitX=1;exitY=0.5;exitDx=0;exitDy=0;entryX=0.5;entryY=0;entryDx=0;entryDy=0;" edge="1" parent="1" source="tWN-eLVCdU0-iKNi5xqO-13" target="tWN-eLVCdU0-iKNi5xqO-10">
          <mxGeometry relative="1" as="geometry" />
        </mxCell>
        <mxCell id="tWN-eLVCdU0-iKNi5xqO-13" value="if choice is delete user" style="rhombus;whiteSpace=wrap;html=1;" parent="1" vertex="1">
          <mxGeometry x="10" y="440" width="130" height="100" as="geometry" />
        </mxCell>
        <mxCell id="ws8rJvI975nbO94ChAaM-13" style="edgeStyle=orthogonalEdgeStyle;rounded=0;orthogonalLoop=1;jettySize=auto;html=1;entryX=0.5;entryY=0;entryDx=0;entryDy=0;" edge="1" parent="1" source="tWN-eLVCdU0-iKNi5xqO-14" target="tWN-eLVCdU0-iKNi5xqO-9">
          <mxGeometry relative="1" as="geometry" />
        </mxCell>
        <mxCell id="ws8rJvI975nbO94ChAaM-18" value="" style="edgeStyle=orthogonalEdgeStyle;rounded=0;orthogonalLoop=1;jettySize=auto;html=1;" edge="1" parent="1" source="tWN-eLVCdU0-iKNi5xqO-14" target="tWN-eLVCdU0-iKNi5xqO-15">
          <mxGeometry relative="1" as="geometry" />
        </mxCell>
        <mxCell id="tWN-eLVCdU0-iKNi5xqO-14" value="if choice is add user" style="rhombus;whiteSpace=wrap;html=1;" parent="1" vertex="1">
          <mxGeometry x="-610" y="440" width="130" height="100" as="geometry" />
        </mxCell>
        <mxCell id="ws8rJvI975nbO94ChAaM-20" value="" style="edgeStyle=orthogonalEdgeStyle;rounded=0;orthogonalLoop=1;jettySize=auto;html=1;" edge="1" parent="1" source="tWN-eLVCdU0-iKNi5xqO-15" target="tWN-eLVCdU0-iKNi5xqO-16">
          <mxGeometry relative="1" as="geometry" />
        </mxCell>
        <mxCell id="tWN-eLVCdU0-iKNi5xqO-15" value="Get first name, last name, phone number, email" style="shape=parallelogram;perimeter=parallelogramPerimeter;whiteSpace=wrap;html=1;fixedSize=1;" parent="1" vertex="1">
          <mxGeometry x="-632.5" y="620" width="175" height="70" as="geometry" />
        </mxCell>
        <mxCell id="ws8rJvI975nbO94ChAaM-21" value="" style="edgeStyle=orthogonalEdgeStyle;rounded=0;orthogonalLoop=1;jettySize=auto;html=1;" edge="1" parent="1" source="tWN-eLVCdU0-iKNi5xqO-16" target="tWN-eLVCdU0-iKNi5xqO-17">
          <mxGeometry relative="1" as="geometry" />
        </mxCell>
        <mxCell id="tWN-eLVCdU0-iKNi5xqO-16" value="Get age" style="shape=parallelogram;perimeter=parallelogramPerimeter;whiteSpace=wrap;html=1;fixedSize=1;" parent="1" vertex="1">
          <mxGeometry x="-605" y="760" width="120" height="60" as="geometry" />
        </mxCell>
        <mxCell id="ws8rJvI975nbO94ChAaM-22" style="edgeStyle=orthogonalEdgeStyle;rounded=0;orthogonalLoop=1;jettySize=auto;html=1;exitX=0;exitY=0.5;exitDx=0;exitDy=0;entryX=0.5;entryY=0;entryDx=0;entryDy=0;" edge="1" parent="1" source="tWN-eLVCdU0-iKNi5xqO-17" target="tWN-eLVCdU0-iKNi5xqO-18">
          <mxGeometry relative="1" as="geometry" />
        </mxCell>
        <mxCell id="ws8rJvI975nbO94ChAaM-23" style="edgeStyle=orthogonalEdgeStyle;rounded=0;orthogonalLoop=1;jettySize=auto;html=1;exitX=1;exitY=0.5;exitDx=0;exitDy=0;entryX=0.5;entryY=0;entryDx=0;entryDy=0;" edge="1" parent="1" source="tWN-eLVCdU0-iKNi5xqO-17" target="tWN-eLVCdU0-iKNi5xqO-19">
          <mxGeometry relative="1" as="geometry" />
        </mxCell>
        <mxCell id="tWN-eLVCdU0-iKNi5xqO-17" value="if age &amp;lt; 18" style="rhombus;whiteSpace=wrap;html=1;" parent="1" vertex="1">
          <mxGeometry x="-585" y="900" width="80" height="80" as="geometry" />
        </mxCell>
        <mxCell id="ws8rJvI975nbO94ChAaM-26" style="edgeStyle=orthogonalEdgeStyle;rounded=0;orthogonalLoop=1;jettySize=auto;html=1;exitX=0.5;exitY=1;exitDx=0;exitDy=0;entryX=0.5;entryY=0;entryDx=0;entryDy=0;" edge="1" parent="1" source="tWN-eLVCdU0-iKNi5xqO-18" target="tWN-eLVCdU0-iKNi5xqO-21">
          <mxGeometry relative="1" as="geometry" />
        </mxCell>
        <mxCell id="tWN-eLVCdU0-iKNi5xqO-18" value="Display &quot;User must be 18 years or older&quot;" style="shape=parallelogram;perimeter=parallelogramPerimeter;whiteSpace=wrap;html=1;fixedSize=1;" parent="1" vertex="1">
          <mxGeometry x="-750" y="1010" width="165" height="70" as="geometry" />
        </mxCell>
        <mxCell id="ws8rJvI975nbO94ChAaM-27" style="edgeStyle=orthogonalEdgeStyle;rounded=0;orthogonalLoop=1;jettySize=auto;html=1;exitX=0.5;exitY=1;exitDx=0;exitDy=0;" edge="1" parent="1" source="tWN-eLVCdU0-iKNi5xqO-19" target="tWN-eLVCdU0-iKNi5xqO-20">
          <mxGeometry relative="1" as="geometry" />
        </mxCell>
        <mxCell id="tWN-eLVCdU0-iKNi5xqO-19" value="Create account number" style="rounded=0;whiteSpace=wrap;html=1;" parent="1" vertex="1">
          <mxGeometry x="-505" y="1010" width="120" height="60" as="geometry" />
        </mxCell>
        <mxCell id="ws8rJvI975nbO94ChAaM-28" value="" style="edgeStyle=orthogonalEdgeStyle;rounded=0;orthogonalLoop=1;jettySize=auto;html=1;" edge="1" parent="1" source="tWN-eLVCdU0-iKNi5xqO-20" target="tWN-eLVCdU0-iKNi5xqO-22">
          <mxGeometry relative="1" as="geometry" />
        </mxCell>
        <mxCell id="tWN-eLVCdU0-iKNi5xqO-20" value="Display the user&#39;s account number" style="shape=parallelogram;perimeter=parallelogramPerimeter;whiteSpace=wrap;html=1;fixedSize=1;" parent="1" vertex="1">
          <mxGeometry x="-505" y="1140" width="120" height="60" as="geometry" />
        </mxCell>
        <mxCell id="ws8rJvI975nbO94ChAaM-94" style="edgeStyle=orthogonalEdgeStyle;rounded=0;orthogonalLoop=1;jettySize=auto;html=1;exitX=0.5;exitY=1;exitDx=0;exitDy=0;entryX=0;entryY=1;entryDx=0;entryDy=0;" edge="1" parent="1" source="tWN-eLVCdU0-iKNi5xqO-21" target="tWN-eLVCdU0-iKNi5xqO-53">
          <mxGeometry relative="1" as="geometry">
            <Array as="points">
              <mxPoint x="-690" y="1240" />
              <mxPoint x="-760" y="1240" />
              <mxPoint x="-760" y="308" />
            </Array>
          </mxGeometry>
        </mxCell>
        <mxCell id="tWN-eLVCdU0-iKNi5xqO-21" value="Connector" style="ellipse;whiteSpace=wrap;html=1;" parent="1" vertex="1">
          <mxGeometry x="-750" y="1140" width="120" height="80" as="geometry" />
        </mxCell>
        <mxCell id="ws8rJvI975nbO94ChAaM-29" style="edgeStyle=orthogonalEdgeStyle;rounded=0;orthogonalLoop=1;jettySize=auto;html=1;exitX=0.5;exitY=1;exitDx=0;exitDy=0;entryX=1;entryY=0.5;entryDx=0;entryDy=0;" edge="1" parent="1" source="tWN-eLVCdU0-iKNi5xqO-22" target="tWN-eLVCdU0-iKNi5xqO-21">
          <mxGeometry relative="1" as="geometry" />
        </mxCell>
        <mxCell id="tWN-eLVCdU0-iKNi5xqO-22" value="Create the user structure dynamically for the entered details" style="rounded=0;whiteSpace=wrap;html=1;" parent="1" vertex="1">
          <mxGeometry x="-505" y="1280" width="120" height="60" as="geometry" />
        </mxCell>
        <mxCell id="ws8rJvI975nbO94ChAaM-8" value="" style="edgeStyle=orthogonalEdgeStyle;rounded=0;orthogonalLoop=1;jettySize=auto;html=1;" edge="1" parent="1" source="tWN-eLVCdU0-iKNi5xqO-23" target="tWN-eLVCdU0-iKNi5xqO-24">
          <mxGeometry relative="1" as="geometry" />
        </mxCell>
        <mxCell id="tWN-eLVCdU0-iKNi5xqO-23" value="Get account number" style="shape=parallelogram;perimeter=parallelogramPerimeter;whiteSpace=wrap;html=1;fixedSize=1;" parent="1" vertex="1">
          <mxGeometry x="-305" y="620" width="140" height="70" as="geometry" />
        </mxCell>
        <mxCell id="ws8rJvI975nbO94ChAaM-9" value="" style="edgeStyle=orthogonalEdgeStyle;rounded=0;orthogonalLoop=1;jettySize=auto;html=1;" edge="1" parent="1" source="tWN-eLVCdU0-iKNi5xqO-24" target="tWN-eLVCdU0-iKNi5xqO-26">
          <mxGeometry relative="1" as="geometry" />
        </mxCell>
        <mxCell id="tWN-eLVCdU0-iKNi5xqO-24" value="if account number found" style="rhombus;whiteSpace=wrap;html=1;" parent="1" vertex="1">
          <mxGeometry x="-300" y="780" width="130" height="110" as="geometry" />
        </mxCell>
        <mxCell id="ws8rJvI975nbO94ChAaM-15" style="edgeStyle=orthogonalEdgeStyle;rounded=0;orthogonalLoop=1;jettySize=auto;html=1;entryX=0.5;entryY=0;entryDx=0;entryDy=0;" edge="1" parent="1" source="tWN-eLVCdU0-iKNi5xqO-25" target="tWN-eLVCdU0-iKNi5xqO-27">
          <mxGeometry relative="1" as="geometry" />
        </mxCell>
        <mxCell id="tWN-eLVCdU0-iKNi5xqO-25" value="Display the details of the found user" style="shape=parallelogram;perimeter=parallelogramPerimeter;whiteSpace=wrap;html=1;fixedSize=1;" parent="1" vertex="1">
          <mxGeometry x="-170" y="910" width="160" height="90" as="geometry" />
        </mxCell>
        <mxCell id="ws8rJvI975nbO94ChAaM-14" style="edgeStyle=orthogonalEdgeStyle;rounded=0;orthogonalLoop=1;jettySize=auto;html=1;entryX=0;entryY=0.5;entryDx=0;entryDy=0;" edge="1" parent="1" source="tWN-eLVCdU0-iKNi5xqO-26" target="tWN-eLVCdU0-iKNi5xqO-27">
          <mxGeometry relative="1" as="geometry" />
        </mxCell>
        <mxCell id="tWN-eLVCdU0-iKNi5xqO-26" value="Display &quot;User not found&quot;" style="shape=parallelogram;perimeter=parallelogramPerimeter;whiteSpace=wrap;html=1;fixedSize=1;" parent="1" vertex="1">
          <mxGeometry x="-320" y="930" width="120" height="60" as="geometry" />
        </mxCell>
        <mxCell id="ws8rJvI975nbO94ChAaM-95" style="edgeStyle=orthogonalEdgeStyle;rounded=0;orthogonalLoop=1;jettySize=auto;html=1;exitX=0.5;exitY=1;exitDx=0;exitDy=0;entryX=0;entryY=0.5;entryDx=0;entryDy=0;" edge="1" parent="1" source="tWN-eLVCdU0-iKNi5xqO-27" target="tWN-eLVCdU0-iKNi5xqO-53">
          <mxGeometry relative="1" as="geometry">
            <Array as="points">
              <mxPoint x="-180" y="1390" />
              <mxPoint x="-780" y="1390" />
              <mxPoint x="-780" y="280" />
            </Array>
          </mxGeometry>
        </mxCell>
        <mxCell id="tWN-eLVCdU0-iKNi5xqO-27" value="Connector" style="ellipse;whiteSpace=wrap;html=1;" parent="1" vertex="1">
          <mxGeometry x="-240" y="1060" width="120" height="80" as="geometry" />
        </mxCell>
        <mxCell id="ws8rJvI975nbO94ChAaM-36" value="" style="edgeStyle=orthogonalEdgeStyle;rounded=0;orthogonalLoop=1;jettySize=auto;html=1;" edge="1" parent="1" source="tWN-eLVCdU0-iKNi5xqO-28" target="tWN-eLVCdU0-iKNi5xqO-29">
          <mxGeometry relative="1" as="geometry" />
        </mxCell>
        <mxCell id="tWN-eLVCdU0-iKNi5xqO-28" value="Get account number" style="shape=parallelogram;perimeter=parallelogramPerimeter;whiteSpace=wrap;html=1;fixedSize=1;" parent="1" vertex="1">
          <mxGeometry x="22.5" y="620" width="105" height="80" as="geometry" />
        </mxCell>
        <mxCell id="ws8rJvI975nbO94ChAaM-37" style="edgeStyle=orthogonalEdgeStyle;rounded=0;orthogonalLoop=1;jettySize=auto;html=1;exitX=1;exitY=0.5;exitDx=0;exitDy=0;entryX=0.5;entryY=0;entryDx=0;entryDy=0;" edge="1" parent="1" source="tWN-eLVCdU0-iKNi5xqO-29" target="tWN-eLVCdU0-iKNi5xqO-30">
          <mxGeometry relative="1" as="geometry" />
        </mxCell>
        <mxCell id="ws8rJvI975nbO94ChAaM-38" style="edgeStyle=orthogonalEdgeStyle;rounded=0;orthogonalLoop=1;jettySize=auto;html=1;exitX=0.5;exitY=1;exitDx=0;exitDy=0;entryX=0.5;entryY=0;entryDx=0;entryDy=0;" edge="1" parent="1" source="tWN-eLVCdU0-iKNi5xqO-29" target="tWN-eLVCdU0-iKNi5xqO-31">
          <mxGeometry relative="1" as="geometry" />
        </mxCell>
        <mxCell id="tWN-eLVCdU0-iKNi5xqO-29" value="if user found" style="rhombus;whiteSpace=wrap;html=1;" parent="1" vertex="1">
          <mxGeometry x="35" y="770" width="80" height="80" as="geometry" />
        </mxCell>
        <mxCell id="ws8rJvI975nbO94ChAaM-41" style="edgeStyle=orthogonalEdgeStyle;rounded=0;orthogonalLoop=1;jettySize=auto;html=1;exitX=0.5;exitY=1;exitDx=0;exitDy=0;entryX=0.5;entryY=0;entryDx=0;entryDy=0;" edge="1" parent="1" source="tWN-eLVCdU0-iKNi5xqO-30" target="tWN-eLVCdU0-iKNi5xqO-32">
          <mxGeometry relative="1" as="geometry" />
        </mxCell>
        <mxCell id="tWN-eLVCdU0-iKNi5xqO-30" value="delete the user, free the memory" style="rounded=0;whiteSpace=wrap;html=1;" parent="1" vertex="1">
          <mxGeometry x="115" y="850" width="120" height="60" as="geometry" />
        </mxCell>
        <mxCell id="ws8rJvI975nbO94ChAaM-42" style="edgeStyle=orthogonalEdgeStyle;rounded=0;orthogonalLoop=1;jettySize=auto;html=1;exitX=0.5;exitY=1;exitDx=0;exitDy=0;entryX=0;entryY=0.5;entryDx=0;entryDy=0;" edge="1" parent="1" source="tWN-eLVCdU0-iKNi5xqO-31" target="tWN-eLVCdU0-iKNi5xqO-32">
          <mxGeometry relative="1" as="geometry" />
        </mxCell>
        <mxCell id="tWN-eLVCdU0-iKNi5xqO-31" value="Display &quot;User not found&quot;" style="shape=parallelogram;perimeter=parallelogramPerimeter;whiteSpace=wrap;html=1;fixedSize=1;" parent="1" vertex="1">
          <mxGeometry x="35" y="950" width="120" height="60" as="geometry" />
        </mxCell>
        <mxCell id="ws8rJvI975nbO94ChAaM-96" style="edgeStyle=orthogonalEdgeStyle;rounded=0;orthogonalLoop=1;jettySize=auto;html=1;exitX=0.5;exitY=1;exitDx=0;exitDy=0;entryX=0;entryY=0;entryDx=0;entryDy=0;" edge="1" parent="1" source="tWN-eLVCdU0-iKNi5xqO-32" target="tWN-eLVCdU0-iKNi5xqO-53">
          <mxGeometry relative="1" as="geometry">
            <Array as="points">
              <mxPoint x="160" y="1410" />
              <mxPoint x="-800" y="1410" />
              <mxPoint x="-800" y="252" />
            </Array>
          </mxGeometry>
        </mxCell>
        <mxCell id="tWN-eLVCdU0-iKNi5xqO-32" value="Connector" style="ellipse;whiteSpace=wrap;html=1;" parent="1" vertex="1">
          <mxGeometry x="100" y="1070" width="120" height="80" as="geometry" />
        </mxCell>
        <mxCell id="ws8rJvI975nbO94ChAaM-47" value="" style="edgeStyle=orthogonalEdgeStyle;rounded=0;orthogonalLoop=1;jettySize=auto;html=1;" edge="1" parent="1" source="tWN-eLVCdU0-iKNi5xqO-33" target="tWN-eLVCdU0-iKNi5xqO-34">
          <mxGeometry relative="1" as="geometry" />
        </mxCell>
        <mxCell id="tWN-eLVCdU0-iKNi5xqO-33" value="Get account number, amount" style="shape=parallelogram;perimeter=parallelogramPerimeter;whiteSpace=wrap;html=1;fixedSize=1;" parent="1" vertex="1">
          <mxGeometry x="317.5" y="620" width="145" height="80" as="geometry" />
        </mxCell>
        <mxCell id="ws8rJvI975nbO94ChAaM-48" style="edgeStyle=orthogonalEdgeStyle;rounded=0;orthogonalLoop=1;jettySize=auto;html=1;exitX=0;exitY=0.5;exitDx=0;exitDy=0;entryX=0.5;entryY=0;entryDx=0;entryDy=0;" edge="1" parent="1" source="tWN-eLVCdU0-iKNi5xqO-34" target="tWN-eLVCdU0-iKNi5xqO-36">
          <mxGeometry relative="1" as="geometry" />
        </mxCell>
        <mxCell id="ws8rJvI975nbO94ChAaM-49" style="edgeStyle=orthogonalEdgeStyle;rounded=0;orthogonalLoop=1;jettySize=auto;html=1;exitX=1;exitY=0.5;exitDx=0;exitDy=0;entryX=0.5;entryY=0;entryDx=0;entryDy=0;" edge="1" parent="1" source="tWN-eLVCdU0-iKNi5xqO-34" target="tWN-eLVCdU0-iKNi5xqO-35">
          <mxGeometry relative="1" as="geometry" />
        </mxCell>
        <mxCell id="tWN-eLVCdU0-iKNi5xqO-34" value="if user found" style="rhombus;whiteSpace=wrap;html=1;" parent="1" vertex="1">
          <mxGeometry x="360" y="770" width="60" height="80" as="geometry" />
        </mxCell>
        <mxCell id="ws8rJvI975nbO94ChAaM-55" style="edgeStyle=orthogonalEdgeStyle;rounded=0;orthogonalLoop=1;jettySize=auto;html=1;exitX=1;exitY=0.5;exitDx=0;exitDy=0;entryX=0.5;entryY=0;entryDx=0;entryDy=0;" edge="1" parent="1" source="tWN-eLVCdU0-iKNi5xqO-35" target="tWN-eLVCdU0-iKNi5xqO-38">
          <mxGeometry relative="1" as="geometry" />
        </mxCell>
        <mxCell id="tWN-eLVCdU0-iKNi5xqO-35" value="if balance is enough" style="rhombus;whiteSpace=wrap;html=1;" parent="1" vertex="1">
          <mxGeometry x="434" y="900" width="80" height="80" as="geometry" />
        </mxCell>
        <mxCell id="ws8rJvI975nbO94ChAaM-53" style="edgeStyle=orthogonalEdgeStyle;rounded=0;orthogonalLoop=1;jettySize=auto;html=1;exitX=0.5;exitY=1;exitDx=0;exitDy=0;entryX=0;entryY=0.5;entryDx=0;entryDy=0;" edge="1" parent="1" source="tWN-eLVCdU0-iKNi5xqO-36" target="tWN-eLVCdU0-iKNi5xqO-40">
          <mxGeometry relative="1" as="geometry">
            <Array as="points">
              <mxPoint x="340" y="1000" />
              <mxPoint x="315" y="1000" />
              <mxPoint x="315" y="1260" />
            </Array>
          </mxGeometry>
        </mxCell>
        <mxCell id="tWN-eLVCdU0-iKNi5xqO-36" value="Display &quot;User not found&quot;" style="shape=parallelogram;perimeter=parallelogramPerimeter;whiteSpace=wrap;html=1;fixedSize=1;" parent="1" vertex="1">
          <mxGeometry x="280" y="910" width="120" height="60" as="geometry" />
        </mxCell>
        <mxCell id="ws8rJvI975nbO94ChAaM-58" style="edgeStyle=orthogonalEdgeStyle;rounded=0;orthogonalLoop=1;jettySize=auto;html=1;exitX=0.5;exitY=1;exitDx=0;exitDy=0;entryX=0.5;entryY=0;entryDx=0;entryDy=0;" edge="1" parent="1" source="tWN-eLVCdU0-iKNi5xqO-37" target="tWN-eLVCdU0-iKNi5xqO-40">
          <mxGeometry relative="1" as="geometry" />
        </mxCell>
        <mxCell id="tWN-eLVCdU0-iKNi5xqO-37" value="Display &quot;Not enough balance&quot;" style="shape=parallelogram;perimeter=parallelogramPerimeter;whiteSpace=wrap;html=1;fixedSize=1;" parent="1" vertex="1">
          <mxGeometry x="325" y="1010" width="137.5" height="70" as="geometry" />
        </mxCell>
        <mxCell id="tWN-eLVCdU0-iKNi5xqO-38" value="Reduce the balance" style="rounded=0;whiteSpace=wrap;html=1;" parent="1" vertex="1">
          <mxGeometry x="500" y="1020" width="120" height="60" as="geometry" />
        </mxCell>
        <mxCell id="ws8rJvI975nbO94ChAaM-60" style="edgeStyle=orthogonalEdgeStyle;rounded=0;orthogonalLoop=1;jettySize=auto;html=1;exitX=0.5;exitY=1;exitDx=0;exitDy=0;entryX=1;entryY=0.5;entryDx=0;entryDy=0;" edge="1" parent="1" source="tWN-eLVCdU0-iKNi5xqO-39" target="tWN-eLVCdU0-iKNi5xqO-40">
          <mxGeometry relative="1" as="geometry" />
        </mxCell>
        <mxCell id="tWN-eLVCdU0-iKNi5xqO-39" value="Display new balance" style="shape=parallelogram;perimeter=parallelogramPerimeter;whiteSpace=wrap;html=1;fixedSize=1;" parent="1" vertex="1">
          <mxGeometry x="462.5" y="1120" width="97.5" height="60" as="geometry" />
        </mxCell>
        <mxCell id="ws8rJvI975nbO94ChAaM-97" style="edgeStyle=orthogonalEdgeStyle;rounded=0;orthogonalLoop=1;jettySize=auto;html=1;exitX=0.5;exitY=1;exitDx=0;exitDy=0;entryX=1;entryY=0;entryDx=0;entryDy=0;" edge="1" parent="1" source="tWN-eLVCdU0-iKNi5xqO-40" target="tWN-eLVCdU0-iKNi5xqO-52">
          <mxGeometry relative="1" as="geometry">
            <Array as="points">
              <mxPoint x="395" y="1320" />
              <mxPoint x="1650" y="1320" />
              <mxPoint x="1650" y="252" />
            </Array>
          </mxGeometry>
        </mxCell>
        <mxCell id="tWN-eLVCdU0-iKNi5xqO-40" value="Connector" style="ellipse;whiteSpace=wrap;html=1;" parent="1" vertex="1">
          <mxGeometry x="335" y="1220" width="120" height="80" as="geometry" />
        </mxCell>
        <mxCell id="ws8rJvI975nbO94ChAaM-66" style="edgeStyle=orthogonalEdgeStyle;rounded=0;orthogonalLoop=1;jettySize=auto;html=1;exitX=0.5;exitY=1;exitDx=0;exitDy=0;entryX=0.5;entryY=0;entryDx=0;entryDy=0;" edge="1" parent="1" source="tWN-eLVCdU0-iKNi5xqO-41" target="tWN-eLVCdU0-iKNi5xqO-42">
          <mxGeometry relative="1" as="geometry" />
        </mxCell>
        <mxCell id="tWN-eLVCdU0-iKNi5xqO-41" value="Get account number" style="shape=parallelogram;perimeter=parallelogramPerimeter;whiteSpace=wrap;html=1;fixedSize=1;" parent="1" vertex="1">
          <mxGeometry x="650" y="630" width="100" height="70" as="geometry" />
        </mxCell>
        <mxCell id="ws8rJvI975nbO94ChAaM-67" style="edgeStyle=orthogonalEdgeStyle;rounded=0;orthogonalLoop=1;jettySize=auto;html=1;exitX=0;exitY=0.5;exitDx=0;exitDy=0;entryX=0.5;entryY=0;entryDx=0;entryDy=0;" edge="1" parent="1" source="tWN-eLVCdU0-iKNi5xqO-42" target="tWN-eLVCdU0-iKNi5xqO-44">
          <mxGeometry relative="1" as="geometry" />
        </mxCell>
        <mxCell id="tWN-eLVCdU0-iKNi5xqO-42" value="if user found" style="rhombus;whiteSpace=wrap;html=1;" parent="1" vertex="1">
          <mxGeometry x="670" y="760" width="60" height="80" as="geometry" />
        </mxCell>
        <mxCell id="ws8rJvI975nbO94ChAaM-72" style="edgeStyle=orthogonalEdgeStyle;rounded=0;orthogonalLoop=1;jettySize=auto;html=1;exitX=0.5;exitY=1;exitDx=0;exitDy=0;entryX=0.5;entryY=0;entryDx=0;entryDy=0;" edge="1" parent="1" source="tWN-eLVCdU0-iKNi5xqO-43" target="tWN-eLVCdU0-iKNi5xqO-45">
          <mxGeometry relative="1" as="geometry" />
        </mxCell>
        <mxCell id="tWN-eLVCdU0-iKNi5xqO-43" value="Display the balance" style="shape=parallelogram;perimeter=parallelogramPerimeter;whiteSpace=wrap;html=1;fixedSize=1;" parent="1" vertex="1">
          <mxGeometry x="730" y="870" width="100" height="70" as="geometry" />
        </mxCell>
        <mxCell id="ws8rJvI975nbO94ChAaM-71" style="edgeStyle=orthogonalEdgeStyle;rounded=0;orthogonalLoop=1;jettySize=auto;html=1;exitX=0.5;exitY=1;exitDx=0;exitDy=0;entryX=0;entryY=0.5;entryDx=0;entryDy=0;" edge="1" parent="1" source="tWN-eLVCdU0-iKNi5xqO-44" target="tWN-eLVCdU0-iKNi5xqO-45">
          <mxGeometry relative="1" as="geometry" />
        </mxCell>
        <mxCell id="tWN-eLVCdU0-iKNi5xqO-44" value="Display &quot;User not found&quot;" style="shape=parallelogram;perimeter=parallelogramPerimeter;whiteSpace=wrap;html=1;fixedSize=1;" parent="1" vertex="1">
          <mxGeometry x="590" y="875" width="120" height="60" as="geometry" />
        </mxCell>
        <mxCell id="ws8rJvI975nbO94ChAaM-93" style="edgeStyle=orthogonalEdgeStyle;rounded=0;orthogonalLoop=1;jettySize=auto;html=1;exitX=0.5;exitY=1;exitDx=0;exitDy=0;entryX=1;entryY=0.5;entryDx=0;entryDy=0;" edge="1" parent="1" source="tWN-eLVCdU0-iKNi5xqO-45" target="tWN-eLVCdU0-iKNi5xqO-52">
          <mxGeometry relative="1" as="geometry">
            <Array as="points">
              <mxPoint x="760" y="1250" />
              <mxPoint x="1630" y="1250" />
              <mxPoint x="1630" y="280" />
            </Array>
          </mxGeometry>
        </mxCell>
        <mxCell id="tWN-eLVCdU0-iKNi5xqO-45" value="Connector" style="ellipse;whiteSpace=wrap;html=1;" parent="1" vertex="1">
          <mxGeometry x="700" y="990" width="120" height="80" as="geometry" />
        </mxCell>
        <mxCell id="ws8rJvI975nbO94ChAaM-77" value="" style="edgeStyle=orthogonalEdgeStyle;rounded=0;orthogonalLoop=1;jettySize=auto;html=1;" edge="1" parent="1" source="tWN-eLVCdU0-iKNi5xqO-46" target="tWN-eLVCdU0-iKNi5xqO-47">
          <mxGeometry relative="1" as="geometry" />
        </mxCell>
        <mxCell id="tWN-eLVCdU0-iKNi5xqO-46" value="Get account number, money" style="shape=parallelogram;perimeter=parallelogramPerimeter;whiteSpace=wrap;html=1;fixedSize=1;" parent="1" vertex="1">
          <mxGeometry x="972.5" y="610" width="105" height="70" as="geometry" />
        </mxCell>
        <mxCell id="ws8rJvI975nbO94ChAaM-79" style="edgeStyle=orthogonalEdgeStyle;rounded=0;orthogonalLoop=1;jettySize=auto;html=1;exitX=1;exitY=0.5;exitDx=0;exitDy=0;entryX=0.5;entryY=0;entryDx=0;entryDy=0;" edge="1" parent="1" source="tWN-eLVCdU0-iKNi5xqO-47" target="tWN-eLVCdU0-iKNi5xqO-48">
          <mxGeometry relative="1" as="geometry" />
        </mxCell>
        <mxCell id="tWN-eLVCdU0-iKNi5xqO-47" value="if user found" style="rhombus;whiteSpace=wrap;html=1;" parent="1" vertex="1">
          <mxGeometry x="992.5" y="750" width="65" height="80" as="geometry" />
        </mxCell>
        <mxCell id="ws8rJvI975nbO94ChAaM-83" style="edgeStyle=orthogonalEdgeStyle;rounded=0;orthogonalLoop=1;jettySize=auto;html=1;exitX=0.5;exitY=1;exitDx=0;exitDy=0;entryX=0.5;entryY=0;entryDx=0;entryDy=0;" edge="1" parent="1" source="tWN-eLVCdU0-iKNi5xqO-48" target="tWN-eLVCdU0-iKNi5xqO-50">
          <mxGeometry relative="1" as="geometry" />
        </mxCell>
        <mxCell id="tWN-eLVCdU0-iKNi5xqO-48" value="Add the balance" style="rounded=0;whiteSpace=wrap;html=1;" parent="1" vertex="1">
          <mxGeometry x="1150" y="880" width="120" height="60" as="geometry" />
        </mxCell>
        <mxCell id="ws8rJvI975nbO94ChAaM-80" style="edgeStyle=orthogonalEdgeStyle;rounded=0;orthogonalLoop=1;jettySize=auto;html=1;exitX=0.5;exitY=1;exitDx=0;exitDy=0;entryX=0;entryY=0.5;entryDx=0;entryDy=0;" edge="1" parent="1" source="tWN-eLVCdU0-iKNi5xqO-49" target="tWN-eLVCdU0-iKNi5xqO-51">
          <mxGeometry relative="1" as="geometry" />
        </mxCell>
        <mxCell id="tWN-eLVCdU0-iKNi5xqO-49" value="Display &quot;User not found&quot;" style="shape=parallelogram;perimeter=parallelogramPerimeter;whiteSpace=wrap;html=1;fixedSize=1;" parent="1" vertex="1">
          <mxGeometry x="937.5" y="890" width="120" height="60" as="geometry" />
        </mxCell>
        <mxCell id="ws8rJvI975nbO94ChAaM-87" style="edgeStyle=orthogonalEdgeStyle;rounded=0;orthogonalLoop=1;jettySize=auto;html=1;exitX=0.5;exitY=1;exitDx=0;exitDy=0;entryX=1;entryY=0.5;entryDx=0;entryDy=0;" edge="1" parent="1" source="tWN-eLVCdU0-iKNi5xqO-50" target="tWN-eLVCdU0-iKNi5xqO-51">
          <mxGeometry relative="1" as="geometry" />
        </mxCell>
        <mxCell id="tWN-eLVCdU0-iKNi5xqO-50" value="Display &quot;Success&quot;" style="shape=parallelogram;perimeter=parallelogramPerimeter;whiteSpace=wrap;html=1;fixedSize=1;" parent="1" vertex="1">
          <mxGeometry x="1120" y="1010" width="120" height="60" as="geometry" />
        </mxCell>
        <mxCell id="ws8rJvI975nbO94ChAaM-92" style="edgeStyle=orthogonalEdgeStyle;rounded=0;orthogonalLoop=1;jettySize=auto;html=1;exitX=0.5;exitY=1;exitDx=0;exitDy=0;entryX=1;entryY=1;entryDx=0;entryDy=0;" edge="1" parent="1" source="tWN-eLVCdU0-iKNi5xqO-51" target="tWN-eLVCdU0-iKNi5xqO-52">
          <mxGeometry relative="1" as="geometry">
            <Array as="points">
              <mxPoint x="1050" y="1230" />
              <mxPoint x="1610" y="1230" />
              <mxPoint x="1610" y="308" />
            </Array>
          </mxGeometry>
        </mxCell>
        <mxCell id="tWN-eLVCdU0-iKNi5xqO-51" value="Connector" style="ellipse;whiteSpace=wrap;html=1;" parent="1" vertex="1">
          <mxGeometry x="990" y="1130" width="120" height="80" as="geometry" />
        </mxCell>
        <mxCell id="ws8rJvI975nbO94ChAaM-101" style="edgeStyle=orthogonalEdgeStyle;rounded=0;orthogonalLoop=1;jettySize=auto;html=1;exitX=0;exitY=0.5;exitDx=0;exitDy=0;entryX=1;entryY=0.75;entryDx=0;entryDy=0;" edge="1" parent="1" source="tWN-eLVCdU0-iKNi5xqO-52" target="tWN-eLVCdU0-iKNi5xqO-2">
          <mxGeometry relative="1" as="geometry" />
        </mxCell>
        <mxCell id="tWN-eLVCdU0-iKNi5xqO-52" value="Connector" style="ellipse;whiteSpace=wrap;html=1;" parent="1" vertex="1">
          <mxGeometry x="630" y="240" width="120" height="80" as="geometry" />
        </mxCell>
        <mxCell id="ws8rJvI975nbO94ChAaM-102" style="edgeStyle=orthogonalEdgeStyle;rounded=0;orthogonalLoop=1;jettySize=auto;html=1;exitX=1;exitY=0.5;exitDx=0;exitDy=0;entryX=0;entryY=0;entryDx=0;entryDy=0;" edge="1" parent="1" source="tWN-eLVCdU0-iKNi5xqO-53" target="tWN-eLVCdU0-iKNi5xqO-2">
          <mxGeometry relative="1" as="geometry" />
        </mxCell>
        <mxCell id="tWN-eLVCdU0-iKNi5xqO-53" value="Connector" style="ellipse;whiteSpace=wrap;html=1;" parent="1" vertex="1">
          <mxGeometry x="20" y="240" width="120" height="80" as="geometry" />
        </mxCell>
        <mxCell id="ws8rJvI975nbO94ChAaM-5" value="Yes" style="text;html=1;align=center;verticalAlign=middle;whiteSpace=wrap;rounded=0;" vertex="1" parent="1">
          <mxGeometry x="-250" y="555" width="60" height="30" as="geometry" />
        </mxCell>
        <mxCell id="ws8rJvI975nbO94ChAaM-7" value="No" style="text;html=1;align=center;verticalAlign=middle;whiteSpace=wrap;rounded=0;" vertex="1" parent="1">
          <mxGeometry x="-140" y="470" width="60" height="30" as="geometry" />
        </mxCell>
        <mxCell id="ws8rJvI975nbO94ChAaM-11" style="edgeStyle=orthogonalEdgeStyle;rounded=0;orthogonalLoop=1;jettySize=auto;html=1;exitX=1;exitY=0.5;exitDx=0;exitDy=0;entryX=0.55;entryY=-0.01;entryDx=0;entryDy=0;entryPerimeter=0;" edge="1" parent="1" source="tWN-eLVCdU0-iKNi5xqO-24" target="tWN-eLVCdU0-iKNi5xqO-25">
          <mxGeometry relative="1" as="geometry" />
        </mxCell>
        <mxCell id="ws8rJvI975nbO94ChAaM-12" value="Yes" style="text;html=1;align=center;verticalAlign=middle;whiteSpace=wrap;rounded=0;" vertex="1" parent="1">
          <mxGeometry x="-160" y="810" width="60" height="30" as="geometry" />
        </mxCell>
        <mxCell id="ws8rJvI975nbO94ChAaM-16" value="No" style="text;html=1;align=center;verticalAlign=middle;whiteSpace=wrap;rounded=0;" vertex="1" parent="1">
          <mxGeometry x="-280" y="890" width="60" height="30" as="geometry" />
        </mxCell>
        <mxCell id="ws8rJvI975nbO94ChAaM-17" value="No" style="text;html=1;align=center;verticalAlign=middle;whiteSpace=wrap;rounded=0;" vertex="1" parent="1">
          <mxGeometry x="-480" y="470" width="60" height="30" as="geometry" />
        </mxCell>
        <mxCell id="ws8rJvI975nbO94ChAaM-19" value="Yes" style="text;html=1;align=center;verticalAlign=middle;whiteSpace=wrap;rounded=0;" vertex="1" parent="1">
          <mxGeometry x="-560" y="555" width="60" height="30" as="geometry" />
        </mxCell>
        <mxCell id="ws8rJvI975nbO94ChAaM-24" value="Yes" style="text;html=1;align=center;verticalAlign=middle;whiteSpace=wrap;rounded=0;" vertex="1" parent="1">
          <mxGeometry x="-505" y="920" width="60" height="30" as="geometry" />
        </mxCell>
        <mxCell id="ws8rJvI975nbO94ChAaM-25" value="No" style="text;html=1;align=center;verticalAlign=middle;whiteSpace=wrap;rounded=0;" vertex="1" parent="1">
          <mxGeometry x="-650" y="920" width="60" height="30" as="geometry" />
        </mxCell>
        <mxCell id="ws8rJvI975nbO94ChAaM-34" value="Yes" style="text;html=1;align=center;verticalAlign=middle;whiteSpace=wrap;rounded=0;" vertex="1" parent="1">
          <mxGeometry x="55" y="555" width="60" height="30" as="geometry" />
        </mxCell>
        <mxCell id="ws8rJvI975nbO94ChAaM-35" value="No" style="text;html=1;align=center;verticalAlign=middle;whiteSpace=wrap;rounded=0;" vertex="1" parent="1">
          <mxGeometry x="145" y="470" width="60" height="30" as="geometry" />
        </mxCell>
        <mxCell id="ws8rJvI975nbO94ChAaM-39" value="Yes" style="text;html=1;align=center;verticalAlign=middle;whiteSpace=wrap;rounded=0;" vertex="1" parent="1">
          <mxGeometry x="115" y="787.5" width="60" height="25" as="geometry" />
        </mxCell>
        <mxCell id="ws8rJvI975nbO94ChAaM-40" value="No" style="text;html=1;align=center;verticalAlign=middle;whiteSpace=wrap;rounded=0;" vertex="1" parent="1">
          <mxGeometry x="35" y="850" width="60" height="30" as="geometry" />
        </mxCell>
        <mxCell id="ws8rJvI975nbO94ChAaM-45" value="Yes" style="text;html=1;align=center;verticalAlign=middle;whiteSpace=wrap;rounded=0;" vertex="1" parent="1">
          <mxGeometry x="374" y="555" width="60" height="30" as="geometry" />
        </mxCell>
        <mxCell id="ws8rJvI975nbO94ChAaM-46" value="No" style="text;html=1;align=center;verticalAlign=middle;whiteSpace=wrap;rounded=0;" vertex="1" parent="1">
          <mxGeometry x="462.5" y="460" width="60" height="30" as="geometry" />
        </mxCell>
        <mxCell id="ws8rJvI975nbO94ChAaM-50" value="Yes" style="text;html=1;align=center;verticalAlign=middle;whiteSpace=wrap;rounded=0;" vertex="1" parent="1">
          <mxGeometry x="403" y="785" width="60" height="30" as="geometry" />
        </mxCell>
        <mxCell id="ws8rJvI975nbO94ChAaM-51" value="No" style="text;html=1;align=center;verticalAlign=middle;whiteSpace=wrap;rounded=0;" vertex="1" parent="1">
          <mxGeometry x="290" y="820" width="60" height="30" as="geometry" />
        </mxCell>
        <mxCell id="ws8rJvI975nbO94ChAaM-54" style="edgeStyle=orthogonalEdgeStyle;rounded=0;orthogonalLoop=1;jettySize=auto;html=1;exitX=0;exitY=0.5;exitDx=0;exitDy=0;entryX=0.556;entryY=0.037;entryDx=0;entryDy=0;entryPerimeter=0;" edge="1" parent="1" source="tWN-eLVCdU0-iKNi5xqO-35" target="tWN-eLVCdU0-iKNi5xqO-37">
          <mxGeometry relative="1" as="geometry" />
        </mxCell>
        <mxCell id="ws8rJvI975nbO94ChAaM-56" value="Yes" style="text;html=1;align=center;verticalAlign=middle;whiteSpace=wrap;rounded=0;" vertex="1" parent="1">
          <mxGeometry x="500" y="920" width="60" height="30" as="geometry" />
        </mxCell>
        <mxCell id="ws8rJvI975nbO94ChAaM-57" value="No" style="text;html=1;align=center;verticalAlign=middle;whiteSpace=wrap;rounded=0;" vertex="1" parent="1">
          <mxGeometry x="390" y="920" width="60" height="30" as="geometry" />
        </mxCell>
        <mxCell id="ws8rJvI975nbO94ChAaM-59" style="edgeStyle=orthogonalEdgeStyle;rounded=0;orthogonalLoop=1;jettySize=auto;html=1;exitX=0.5;exitY=1;exitDx=0;exitDy=0;entryX=0.622;entryY=0.05;entryDx=0;entryDy=0;entryPerimeter=0;" edge="1" parent="1" source="tWN-eLVCdU0-iKNi5xqO-38" target="tWN-eLVCdU0-iKNi5xqO-39">
          <mxGeometry relative="1" as="geometry" />
        </mxCell>
        <mxCell id="ws8rJvI975nbO94ChAaM-63" value="Yes" style="text;html=1;align=center;verticalAlign=middle;whiteSpace=wrap;rounded=0;" vertex="1" parent="1">
          <mxGeometry x="690" y="540" width="60" height="30" as="geometry" />
        </mxCell>
        <mxCell id="ws8rJvI975nbO94ChAaM-65" value="No" style="text;html=1;align=center;verticalAlign=middle;whiteSpace=wrap;rounded=0;" vertex="1" parent="1">
          <mxGeometry x="767" y="470" width="60" height="30" as="geometry" />
        </mxCell>
        <mxCell id="ws8rJvI975nbO94ChAaM-68" style="edgeStyle=orthogonalEdgeStyle;rounded=0;orthogonalLoop=1;jettySize=auto;html=1;exitX=1;exitY=0.5;exitDx=0;exitDy=0;entryX=0.64;entryY=0.043;entryDx=0;entryDy=0;entryPerimeter=0;" edge="1" parent="1" source="tWN-eLVCdU0-iKNi5xqO-42" target="tWN-eLVCdU0-iKNi5xqO-43">
          <mxGeometry relative="1" as="geometry" />
        </mxCell>
        <mxCell id="ws8rJvI975nbO94ChAaM-69" value="Yes" style="text;html=1;align=center;verticalAlign=middle;whiteSpace=wrap;rounded=0;" vertex="1" parent="1">
          <mxGeometry x="720" y="780" width="60" height="30" as="geometry" />
        </mxCell>
        <mxCell id="ws8rJvI975nbO94ChAaM-70" value="No" style="text;html=1;align=center;verticalAlign=middle;whiteSpace=wrap;rounded=0;" vertex="1" parent="1">
          <mxGeometry x="610" y="800" width="60" height="30" as="geometry" />
        </mxCell>
        <mxCell id="ws8rJvI975nbO94ChAaM-75" value="Yes" style="text;html=1;align=center;verticalAlign=middle;whiteSpace=wrap;rounded=0;" vertex="1" parent="1">
          <mxGeometry x="1010" y="540" width="60" height="30" as="geometry" />
        </mxCell>
        <mxCell id="ws8rJvI975nbO94ChAaM-76" value="No" style="text;html=1;align=center;verticalAlign=middle;whiteSpace=wrap;rounded=0;" vertex="1" parent="1">
          <mxGeometry x="1100" y="470" width="60" height="30" as="geometry" />
        </mxCell>
        <mxCell id="ws8rJvI975nbO94ChAaM-78" style="edgeStyle=orthogonalEdgeStyle;rounded=0;orthogonalLoop=1;jettySize=auto;html=1;exitX=0.5;exitY=1;exitDx=0;exitDy=0;entryX=0.551;entryY=0.063;entryDx=0;entryDy=0;entryPerimeter=0;" edge="1" parent="1" source="tWN-eLVCdU0-iKNi5xqO-47" target="tWN-eLVCdU0-iKNi5xqO-49">
          <mxGeometry relative="1" as="geometry" />
        </mxCell>
        <mxCell id="ws8rJvI975nbO94ChAaM-81" value="Yes" style="text;html=1;align=center;verticalAlign=middle;whiteSpace=wrap;rounded=0;" vertex="1" parent="1">
          <mxGeometry x="1070" y="770" width="60" height="30" as="geometry" />
        </mxCell>
        <mxCell id="ws8rJvI975nbO94ChAaM-82" value="No" style="text;html=1;align=center;verticalAlign=middle;whiteSpace=wrap;rounded=0;" vertex="1" parent="1">
          <mxGeometry x="1010" y="830" width="60" height="30" as="geometry" />
        </mxCell>
        <mxCell id="ws8rJvI975nbO94ChAaM-100" style="edgeStyle=orthogonalEdgeStyle;rounded=0;orthogonalLoop=1;jettySize=auto;html=1;exitX=0.5;exitY=1;exitDx=0;exitDy=0;entryX=0.5;entryY=1;entryDx=0;entryDy=0;" edge="1" parent="1" source="ws8rJvI975nbO94ChAaM-85" target="tWN-eLVCdU0-iKNi5xqO-52">
          <mxGeometry relative="1" as="geometry">
            <Array as="points">
              <mxPoint x="1343" y="700" />
              <mxPoint x="1590" y="700" />
              <mxPoint x="1590" y="320" />
            </Array>
          </mxGeometry>
        </mxCell>
        <mxCell id="ws8rJvI975nbO94ChAaM-85" value="Display &quot;Invalid Input&quot;" style="shape=parallelogram;perimeter=parallelogramPerimeter;whiteSpace=wrap;html=1;fixedSize=1;" vertex="1" parent="1">
          <mxGeometry x="1285" y="610" width="115" height="70" as="geometry" />
        </mxCell>
        <mxCell id="ws8rJvI975nbO94ChAaM-88" value="Stop" style="ellipse;whiteSpace=wrap;html=1;" vertex="1" parent="1">
          <mxGeometry x="1460" y="505" width="120" height="80" as="geometry" />
        </mxCell>
        <mxCell id="ws8rJvI975nbO94ChAaM-98" value="Yes" style="text;html=1;align=center;verticalAlign=middle;whiteSpace=wrap;rounded=0;" vertex="1" parent="1">
          <mxGeometry x="1390" y="470" width="60" height="30" as="geometry" />
        </mxCell>
        <mxCell id="ws8rJvI975nbO94ChAaM-99" value="No" style="text;html=1;align=center;verticalAlign=middle;whiteSpace=wrap;rounded=0;" vertex="1" parent="1">
          <mxGeometry x="1330" y="540" width="60" height="30" as="geometry" />
        </mxCell>
      </root>
    </mxGraphModel>
  </diagram>
</mxfile>
